<svg viewBox="0 0 23 23" fill="none" xmlns="http://www.w3.org/2000/svg">
<path d="M20.0303 0H2.22559C1.00151 0 0 1.01111 0 2.2469V20.2221C0 21.4579 1.00151 22.469 2.22559 22.469H20.0303C21.2544 22.469 22.2559 21.4579 22.2559 20.2221V2.2469C22.2559 1.01111 21.2544 0 20.0303 0ZM6.67676 19.0987H3.33838V8.9876H6.67676V19.0987ZM5.00757 7.07774C3.89478 7.07774 3.00454 6.17898 3.00454 5.05553C3.00454 3.93208 3.89478 3.03332 5.00757 3.03332C6.12037 3.03332 7.0106 3.93208 7.0106 5.05553C7.0106 6.17898 6.12037 7.07774 5.00757 7.07774ZM18.9175 19.0987H15.5791V13.1444C15.5791 12.2457 14.8002 11.4592 13.9099 11.4592C13.0197 11.4592 12.2407 12.2457 12.2407 13.1444V19.0987H8.90235V8.9876H12.2407V10.3357C12.7971 9.43698 14.0212 8.76291 15.0227 8.76291C17.137 8.76291 18.9175 10.5604 18.9175 12.695V19.0987Z" fill="currentColor"/>
</svg>
