<?xml version="1.0" encoding="UTF-8"?>
<svg xmlns="http://www.w3.org/2000/svg" viewBox="0 0 40 40" fill="none">
  <path id="Vector_2" d="M22.5365 10.2168H19.8625H17.1886L9.23438 13.7514H19.8625H30.4907L22.5365 10.2168Z" stroke="currentColor" stroke-linejoin="bevel"></path>
  <path id="Vector_3" d="M22.5365 17.5449H19.8625H17.1886L9.23438 21.0795H19.8625H30.4907L22.5365 17.5449Z" stroke="currentColor" stroke-linejoin="bevel"></path>
  <path id="Vector_4" d="M15.5128 23.4741L26.0552 28.0485L26.0175 28.0596L10.9629 34.5927L11.1744 34.1407L15.9609 22.373L17.384 8.2771L19.8417 5.56152L19.8826 5.60239L22.3403 8.31797L23.7634 22.4138L28.5499 34.1816L28.7158 34.5927L13.6612 28.0596L13.6235 28.0485L24.1659 23.4741" stroke="currentColor" stroke-linejoin="bevel"></path>
  <path id="Vector_5" d="M9.53125 13.2422V15.3958" stroke="currentColor" stroke-linejoin="bevel"></path>
  <path id="Vector_6" d="M30.1699 13.2422V15.3958" stroke="currentColor" stroke-linejoin="bevel"></path>
  <path id="Vector_7" d="M9.53125 20.5322V22.685" stroke="currentColor" stroke-linejoin="bevel"></path>
  <path id="Vector_8" d="M30.1699 20.5322V22.685" stroke="currentColor" stroke-linejoin="bevel"></path>
</svg>
