<?xml version="1.0" encoding="UTF-8"?>
<svg xmlns="http://www.w3.org/2000/svg" viewBox="0 0 40 40" fill="none">
  <path id="Vector_2" d="M26.2555 17.8469H20.586L22.7929 9.61297C22.8928 9.23963 22.4022 9.00383 22.1726 9.31508L13.1955 21.5088C13.0257 21.7399 13.1908 22.0661 13.4778 22.0661H19.1472L16.9403 30.3001C16.8404 30.6734 17.331 30.9092 17.5606 30.598L26.5377 18.4042C26.7075 18.1731 26.5424 17.8469 26.2555 17.8469Z" stroke="currentColor" stroke-miterlimit="10"></path>
  <path id="Vector_3" d="M5.10664 20.3755C5.07879 18.1507 5.54667 15.886 6.56758 13.7407C10.1348 6.24174 19.1066 3.05404 26.6056 6.6221C34.1045 10.1894 37.2922 19.1612 33.7241 26.6602C30.1569 34.1592 21.1851 37.3469 13.6861 33.7788C10.7093 32.3624 8.41208 30.0946 6.94635 27.4058" stroke="currentColor" stroke-miterlimit="10"></path>
  <path id="Vector_4" d="M6.30859 31.7046L6.86131 27.2197L11.3734 27.7479" stroke="currentColor" stroke-miterlimit="10"></path>
</svg>
