<?xml version="1.0" encoding="UTF-8"?>
<svg xmlns="http://www.w3.org/2000/svg" viewBox="0 0 70 70" fill="none">
  <path id="Vector" d="M37.9293 24.8604H17.707V28.8103H37.9293V24.8604Z" stroke="currentColor" stroke-width="1.5" stroke-miterlimit="10"></path>
  <path id="Vector_2" d="M19.7009 28.8105H35.9448V35.9734C35.9448 39.9611 32.713 43.1929 28.7253 43.1929H26.9109C22.9232 43.1929 19.6914 39.9611 19.6914 35.9734V28.8105H19.7009Z" stroke="currentColor" stroke-width="1.5" stroke-miterlimit="10"></path>
  <path id="Vector_3" d="M22.498 24.8604V18" stroke="currentColor" stroke-width="1.5" stroke-miterlimit="10"></path>
  <path id="Vector_4" d="M33.1387 24.8604V18" stroke="currentColor" stroke-width="1.5" stroke-miterlimit="10"></path>
  <path id="Vector_5" d="M27.8184 43.1929V44.4875C27.8184 48.8249 31.3336 52.3402 35.671 52.3402C40.0084 52.3402 43.5237 48.8249 43.5237 44.4875V39.1107C43.5237 37.164 45.1018 35.5859 47.0484 35.5859C48.995 35.5859 50.5731 37.164 50.5731 39.1107V49.08" stroke="currentColor" stroke-width="1.5" stroke-miterlimit="10"></path>
</svg>
