<?xml version="1.0" encoding="UTF-8"?>
<svg xmlns="http://www.w3.org/2000/svg" viewBox="0 0 40 40" fill="none">
  <path d="M28.6207 11.9582C28.388 11.9582 27.9351 12.003 27.9351 12.003C26.6827 9.15613 23.8405 7.16602 20.5297 7.16602C17.9556 7.16602 15.6677 8.37172 14.1857 10.2439C13.6282 10.093 13.0441 10.005 12.4387 10.005C8.75443 10.005 5.76758 12.9909 5.76758 16.6741C5.76758 20.3572 8.75443 23.3432 12.4387 23.3432H28.6199C31.7648 23.3432 34.3137 20.795 34.3137 17.6511C34.3137 14.5071 31.7648 11.959 28.6199 11.959L28.6207 11.9582Z" stroke="currentColor" stroke-miterlimit="10"></path>
  <path d="M12.7441 21.2744V29.686" stroke="currentColor" stroke-miterlimit="10"></path>
  <path d="M14.8449 27.8037L12.7434 29.9039L10.6426 27.8037" stroke="currentColor" stroke-miterlimit="10"></path>
  <path d="M20.041 25.1885V32.8754" stroke="currentColor" stroke-miterlimit="10"></path>
  <path d="M22.1438 30.9941L20.0422 33.0943L17.9414 30.9941" stroke="currentColor" stroke-miterlimit="10"></path>
  <path d="M27.3398 21.2744V29.686" stroke="currentColor" stroke-miterlimit="10"></path>
  <path d="M29.4406 27.8037L27.3399 29.9039L25.2383 27.8037" stroke="currentColor" stroke-miterlimit="10"></path>
  <path d="M26.7487 19.3939H24.9388V18.9506L25.5482 18.3352C25.7219 18.1537 25.8359 18.0303 25.8886 17.9627C25.9421 17.8966 25.9798 17.8393 26.001 17.7913C26.0222 17.7434 26.0325 17.6946 26.0325 17.642C26.0325 17.5775 26.0105 17.5257 25.9688 17.4887C25.9271 17.451 25.8674 17.4321 25.7911 17.4321C25.7148 17.4321 25.6339 17.4549 25.5537 17.4997C25.4735 17.5445 25.3831 17.6113 25.2816 17.6978L24.9121 17.2655C25.0403 17.15 25.148 17.0682 25.236 17.0187C25.3241 16.9692 25.4184 16.9314 25.5214 16.9055C25.6244 16.8788 25.74 16.8662 25.8689 16.8662C26.0301 16.8662 26.174 16.8945 26.3014 16.9519C26.4279 17.0085 26.5262 17.0894 26.5962 17.1948C26.6662 17.3001 26.7008 17.418 26.7008 17.5484C26.7008 17.6467 26.689 17.7363 26.6646 17.8196C26.6394 17.9021 26.6017 17.9847 26.5506 18.0641C26.4995 18.1442 26.4319 18.2291 26.347 18.3171C26.2613 18.406 26.082 18.5742 25.8052 18.8217V18.839H26.7479V19.3947L26.7487 19.3939Z" fill="currentColor"></path>
  <path d="M15.77 13.8829C15.47 13.8829 15.2015 13.9371 14.9643 14.0457C14.73 14.1543 14.5315 14.3114 14.3686 14.5171C14.2058 14.72 14.0815 14.9671 13.9958 15.2586C13.91 15.5471 13.8672 15.8729 13.8672 16.2357C13.8672 16.7214 13.9358 17.14 14.0729 17.4914C14.21 17.84 14.4186 18.1086 14.6986 18.2971C14.9786 18.4829 15.3329 18.5757 15.7615 18.5757C16.0272 18.5757 16.2858 18.55 16.5372 18.4986C16.7886 18.4471 17.0486 18.3771 17.3172 18.2886V19.1629C17.0629 19.2629 16.8058 19.3357 16.5458 19.3814C16.2858 19.4271 15.9858 19.45 15.6458 19.45C15.0058 19.45 14.4743 19.3171 14.0515 19.0514C13.6315 18.7857 13.3172 18.4114 13.1086 17.9286C12.9029 17.4457 12.8 16.88 12.8 16.2314C12.8 15.7571 12.8658 15.3229 12.9972 14.9286C13.1286 14.5343 13.32 14.1943 13.5715 13.9086C13.8229 13.62 14.1329 13.3986 14.5015 13.2443C14.8729 13.0871 15.2972 13.0086 15.7743 13.0086C16.0886 13.0086 16.3972 13.0443 16.7 13.1157C17.0058 13.1843 17.2886 13.2829 17.5486 13.4114L17.1886 14.26C16.9715 14.1571 16.7443 14.0686 16.5072 13.9943C16.27 13.92 16.0243 13.8829 15.77 13.8829Z" fill="black"></path>
  <path d="M24.2258 16.2229C24.2258 16.7057 24.1643 17.1457 24.0415 17.5429C23.9215 17.9371 23.74 18.2771 23.4972 18.5629C23.2543 18.8457 22.95 19.0643 22.5843 19.2186C22.2186 19.3729 21.79 19.45 21.2986 19.45C20.7986 19.45 20.3643 19.3729 19.9958 19.2186C19.63 19.0643 19.3258 18.8443 19.0829 18.5586C18.8429 18.2729 18.6629 17.9314 18.5429 17.5343C18.4229 17.1371 18.3629 16.6971 18.3629 16.2143C18.3629 15.5686 18.4686 15.0057 18.68 14.5257C18.8943 14.0429 19.2186 13.6686 19.6529 13.4029C20.09 13.1343 20.6415 13 21.3072 13C21.9586 13 22.5 13.1329 22.9315 13.3986C23.3629 13.6643 23.6858 14.0386 23.9 14.5214C24.1172 15.0014 24.2258 15.5686 24.2258 16.2229ZM19.4429 16.2229C19.4429 16.7057 19.5086 17.1243 19.64 17.4786C19.7715 17.83 19.9729 18.1014 20.2443 18.2929C20.5186 18.4814 20.87 18.5757 21.2986 18.5757C21.73 18.5757 22.0815 18.4814 22.3529 18.2929C22.6243 18.1014 22.8243 17.83 22.9529 17.4786C23.0815 17.1243 23.1458 16.7057 23.1458 16.2229C23.1458 15.4886 22.9986 14.9143 22.7043 14.5C22.4129 14.0829 21.9472 13.8743 21.3072 13.8743C20.8786 13.8743 20.5258 13.9686 20.2486 14.1571C19.9743 14.3457 19.7715 14.6157 19.64 14.9671C19.5086 15.3157 19.4429 15.7343 19.4429 16.2229Z" fill="black"></path>
</svg>
