<?xml version="1.0" encoding="UTF-8"?>
<svg xmlns="http://www.w3.org/2000/svg" width="56" height="56" viewBox="0 0 56 56" fill="none">
  <path d="M37.5797 10.0596C37.5797 10.0596 39.6097 16.5396 37.1197 22.3996C34.6297 28.2596 28.5397 31.2896 28.5397 31.2896C28.5397 31.2896 26.5097 24.8096 28.9997 18.9496C31.4897 13.0896 37.5797 10.0596 37.5797 10.0596Z" stroke="#425C8F" stroke-width="1.5" stroke-miterlimit="10"></path>
  <path d="M28.5197 31.3092C28.5197 31.3092 23.6097 30.8092 20.4097 27.4692C17.2097 24.1292 16.9297 19.1992 16.9297 19.1992C16.9297 19.1992 21.8397 19.6992 25.0397 23.0392C28.2397 26.3792 28.5197 31.3092 28.5197 31.3092Z" stroke="#425C8F" stroke-width="1.5" stroke-miterlimit="10"></path>
  <path d="M28.3799 36.7996V31.3096" stroke="#425C8F" stroke-width="1.5" stroke-miterlimit="10"></path>
  <path d="M45.2897 44.9798C41.6997 40.0598 35.4797 36.7998 28.3797 36.7998C21.2797 36.7998 15.0597 40.0598 11.4697 44.9798H45.2797H45.2897Z" stroke="#425C8F" stroke-width="1.5" stroke-miterlimit="10"></path>
</svg>
