<?xml version="1.0" encoding="UTF-8"?>
<svg xmlns="http://www.w3.org/2000/svg" viewBox="0 0 40 40" fill="none">
  <path id="Vector_2" d="M33.709 29.3829V19.1768H31.4709V29.3829H33.709Z" stroke="currentColor" stroke-miterlimit="10"></path>
  <path id="Vector_3" d="M21.2949 14.5527V11.1553H18.6637V14.5527H21.2949Z" stroke="currentColor" stroke-miterlimit="10"></path>
  <path id="Vector_4" d="M16.2834 11.1533L23.6762 11.1533C24.2261 11.1533 24.6719 10.7077 24.6719 10.158C24.6719 9.60823 24.2261 9.16259 23.6762 9.16259L16.2834 9.16259C15.7335 9.16259 15.2877 9.60823 15.2877 10.158C15.2877 10.7077 15.7335 11.1533 16.2834 11.1533Z" stroke="currentColor" stroke-miterlimit="10"></path>
  <path id="Vector_5" d="M8.48633 29.3829V19.1768H6.24827V29.3829H8.48633Z" stroke="currentColor" stroke-miterlimit="10"></path>
  <path id="Vector_6" d="M25.8432 20.7094C25.2553 19.6423 24.3819 18.7582 23.3291 18.147V14.5527H16.6288V18.147C15.5768 18.7582 14.7027 19.6423 14.1148 20.7094H8.48633V27.8511H14.5658C15.7818 29.5257 17.7504 30.6191 19.979 30.6191C22.2075 30.6191 24.1761 29.5257 25.3922 27.8511H31.4716V20.7094H25.8432Z" stroke="currentColor" stroke-miterlimit="10"></path>
  <path id="Vector_7" d="M16.6289 18.1475H23.3292" stroke="currentColor" stroke-miterlimit="10"></path>
</svg>
