<?xml version="1.0" encoding="UTF-8"?>
<svg xmlns="http://www.w3.org/2000/svg" viewBox="0 0 40 40" fill="none">
  <path id="Vector_2" d="M32.8065 22.3434V17.9034H29.818C29.557 16.7275 29.0924 15.6303 28.4649 14.6454L30.5807 12.5304L27.4405 9.39114L25.3248 11.5062C24.3396 10.879 23.2421 10.4137 22.0659 10.1528V7.16602H18.3203V14.9473C18.8046 14.805 19.3157 14.7248 19.8464 14.7248C22.8285 14.7248 25.2461 17.1417 25.2461 20.123C25.2461 23.1042 22.8285 25.5211 19.8464 25.5211C19.3157 25.5211 18.8046 25.4417 18.3203 25.2987V33.0799H22.0651V30.094C23.2413 29.833 24.3388 29.3685 25.324 28.7405L27.4397 30.8556L30.5799 27.7164L28.4642 25.6013C29.0924 24.6164 29.557 23.5192 29.818 22.3434H32.8065Z" stroke="currentColor" stroke-miterlimit="10"></path>
  <path id="Vector_3" d="M8.6003 21.2819C9.24034 21.2819 9.75919 20.7632 9.75919 20.1234C9.75919 19.4835 9.24034 18.9648 8.6003 18.9648C7.96026 18.9648 7.44141 19.4835 7.44141 20.1234C7.44141 20.7632 7.96026 21.2819 8.6003 21.2819Z" stroke="currentColor" stroke-miterlimit="10"></path>
  <path id="Vector_4" d="M12.1491 28.7936C12.7892 28.7936 13.308 28.2749 13.308 27.6351C13.308 26.9953 12.7892 26.4766 12.1491 26.4766C11.5091 26.4766 10.9902 26.9953 10.9902 27.6351C10.9902 28.2749 11.5091 28.7936 12.1491 28.7936Z" stroke="currentColor" stroke-miterlimit="10"></path>
  <path id="Vector_5" d="M12.1491 13.7985C12.7892 13.7985 13.308 13.2798 13.308 12.64C13.308 12.0001 12.7892 11.4814 12.1491 11.4814C11.5091 11.4814 10.9902 12.0001 10.9902 12.64C10.9902 13.2798 11.5091 13.7985 12.1491 13.7985Z" stroke="currentColor" stroke-miterlimit="10"></path>
  <path id="Vector_6" d="M9.75977 20.1231H15.4237V17.9404H19.2007" stroke="currentColor" stroke-miterlimit="10"></path>
  <path id="Vector_7" d="M12.1484 26.4761V22.8818H20.2961" stroke="currentColor" stroke-miterlimit="10"></path>
  <path id="Vector_8" d="M12.1484 13.7979V17.4063" stroke="currentColor" stroke-miterlimit="10"></path>
</svg>
