<?xml version="1.0" encoding="UTF-8"?>
<svg xmlns="http://www.w3.org/2000/svg" viewBox="0 0 70 70" fill="none">
  <path d="M24.625 45.3125V49.4375C24.625 50.9218 23.4218 52.125 21.9375 52.125C20.4532 52.125 19.25 50.9218 19.25 49.4375V45.3125M50.75 45.3125V49.4375C50.75 50.9218 49.5468 52.125 48.0625 52.125C46.5782 52.125 45.375 50.9218 45.375 49.4375V45.3125M15 32C15 30.3431 16.3431 29 18 29H52C53.6569 29 55 30.3431 55 32V46H15V32Z" stroke="black" stroke-width="1.5"></path>
  <path d="M24.3333 17H45.6667L51 29H19L24.3333 17Z" stroke="black" stroke-width="1.5"></path>
  <path d="M21.9375 39.75C23.4218 39.75 24.625 38.5468 24.625 37.0625C24.625 35.5782 23.4218 34.375 21.9375 34.375C20.4532 34.375 19.25 35.5782 19.25 37.0625C19.25 38.5468 20.4532 39.75 21.9375 39.75Z" stroke="black" stroke-width="1.5"></path>
  <path d="M48.0625 39.75C49.5468 39.75 50.75 38.5468 50.75 37.0625C50.75 35.5782 49.5468 34.375 48.0625 34.375C46.5782 34.375 45.375 35.5782 45.375 37.0625C45.375 38.5468 46.5782 39.75 48.0625 39.75Z" stroke="black" stroke-width="1.5"></path>
</svg>
