<?xml version="1.0" encoding="UTF-8"?>
<svg xmlns="http://www.w3.org/2000/svg" width="300px" height="300px" viewBox="0 0 100 100" fill="none">
  <path d="M47.2113 41.7539C46.5701 39.696 45.1683 38.667 43.0059 38.667C41.8577 38.667 40.6945 39.0249 39.4865 39.7258C38.2786 40.4267 37.354 41.3065 36.6979 42.3653C36.0566 43.4092 35.0128 46.6005 33.5811 51.9393C32.0899 57.5166 31.3442 60.8272 31.3442 61.8711C31.3442 63.5711 32.5969 64.4211 35.1171 64.4211C37.6374 64.4211 39.5313 63.5115 41.1568 61.6921C43.5428 58.9929 45.377 55.2648 46.6446 50.5375C47.6587 46.7347 47.8376 43.8119 47.1964 41.7539H47.2113Z" fill="#001D3F"></path>
  <path d="M69.148 38.5471C67.7164 38.5471 66.3742 39.0393 65.0918 40.0384C63.8093 41.0376 62.9294 42.2306 62.4671 43.6622C61.9005 45.4517 60.9162 49.1948 59.5144 54.9212C58.7837 57.7994 58.3811 59.5442 58.3065 60.1258C58.2319 60.7073 58.3363 61.3188 58.6197 61.9153C59.3504 63.5855 60.6478 64.4057 62.5268 64.4057C64.6444 64.4057 66.4637 63.5109 67.9997 61.7214C70.3559 59.0073 72.1007 55.5177 73.249 51.2527C74.099 48.0912 74.3376 45.392 73.9499 43.1551C73.4727 40.0682 71.877 38.5322 69.148 38.5322V38.5471Z" fill="#001D3F"></path>
  <path d="M50 15C30.6732 15 15 30.6732 15 50C15 69.3268 30.6732 85 50 85C69.3268 85 85 69.3268 85 50C85 30.6732 69.3268 15 50 15ZM31.4039 64.6591C30.1662 64.1372 29.3012 63.8688 28.824 63.8688C28.3767 63.8688 27.8249 64.0626 27.1538 64.4504C26.4827 64.8381 26.0055 65.032 25.7222 65.032C25.3941 65.032 25.409 64.3609 25.7669 63.0337L34.2224 31.4636C35.311 27.3775 35.6391 25.1704 35.2066 24.8424C35.0426 24.7231 34.2672 24.6634 32.8952 24.6634C31.9259 24.6634 31.4785 24.4994 31.568 24.1713C31.6425 23.8879 31.911 23.7537 32.3434 23.7537H33.1934C35.4154 23.7537 37.6971 23.2914 40.0085 22.3519C40.6945 22.0686 41.1568 21.9195 41.3954 21.9195H41.634L36.519 40.9928C38.6813 38.6813 41.291 37.533 44.3779 37.533C47.778 37.533 50.1939 38.6962 51.6404 41.0226C53.072 43.349 53.2808 46.4359 52.2518 50.2833C51.1185 54.4887 48.8816 58.0827 45.5411 61.0354C42.2007 63.9881 38.726 65.4644 35.1172 65.4644C33.8645 65.4644 32.6118 65.196 31.3741 64.6741L31.4039 64.6591ZM72.5032 61.3784C69.4759 64.0925 66.2697 65.4495 62.8547 65.4495C60.1704 65.4495 58.366 64.4802 57.4265 62.5415L53.6387 76.6937C53.4001 77.5884 53.2957 78.1104 53.3106 78.2744C53.3255 78.4384 53.4896 78.5726 53.7878 78.6919C54.3694 78.8113 55.5475 78.8709 57.3072 78.8709C57.7993 78.8709 57.9932 79.0499 57.9037 79.4227C57.8291 79.706 57.5309 79.8551 56.994 79.8551H45.0937C43.9156 79.8551 43.3788 79.706 43.4533 79.4078C43.5577 79.02 43.856 78.8262 44.3481 78.8262H46.1674C47.3456 78.8262 48.0464 78.5577 48.2552 78.0358C48.3596 77.7972 48.8816 75.9331 49.8061 72.4436L57.9037 42.2007C58.202 41.0673 57.7993 40.5454 56.6809 40.6199H54.1308C53.7729 40.6199 53.6238 40.4708 53.7133 40.1726C53.8176 39.7848 54.3098 39.591 55.2045 39.591C57.4265 39.6357 59.5888 39.0989 61.7064 38.0102C62.3179 37.6821 62.7652 37.5181 63.0486 37.5181C63.3767 37.5181 63.5407 37.6672 63.5556 37.9804C63.5705 38.2787 63.4065 39.2032 63.0337 40.7392C65.1065 38.5918 67.5373 37.5181 70.3409 37.5181C73.8603 37.5181 76.4103 38.8006 77.9612 41.3805C79.5271 43.9455 79.7657 47.2412 78.6919 51.2527C77.6033 55.294 75.5603 58.6792 72.533 61.3933L72.5032 61.3784Z" fill="#001D3F"></path>
</svg>
