<svg xmlns="http://www.w3.org/2000/svg" viewBox="0 0 565.65 144" aria-labelledby="svg-bp-energy" role="img">
  <title id="svg-bp-energy">BP Energy Partners</title>
  <path fill="currentColor" d="M66.26 55.04c-1.33-4.24-4.22-6.36-8.65-6.36-2.35 0-4.76.73-7.24 2.18-2.49 1.45-4.39 3.26-5.72 5.42S41.18 65 38.24 75.97c-3.07 11.47-4.6 18.28-4.6 20.44-.01 3.49 2.58 5.24 7.76 5.24s9.08-1.87 12.43-5.61c4.92-5.57 8.68-13.21 11.29-22.93 2.09-7.81 2.47-13.83 1.14-18.07ZM111.39 48.43c-2.93 0-5.71 1.02-8.35 3.07-2.64 2.05-4.43 4.53-5.39 7.45-1.15 3.67-3.18 11.4-6.08 23.17-1.5 5.92-2.33 9.5-2.49 10.71-.16 1.21.05 2.44.64 3.69 1.51 3.42 4.18 5.13 8.04 5.13 4.35 0 8.1-1.83 11.26-5.51 4.85-5.6 8.44-12.77 10.79-21.54 1.74-6.51 2.23-12.06 1.45-16.65-.98-6.34-4.27-9.52-9.88-9.52Z"/>
  <path fill="currentColor" d="M72 0C32.23 0 0 32.24 0 72s32.23 72 72 72 72-32.24 72-72S111.77 0 72 0ZM33.73 102.15c-2.54-1.08-4.31-1.62-5.31-1.62-.91 0-2.06.4-3.44 1.18-1.37.79-2.36 1.19-2.94 1.19-.66 0-.63-1.37.11-4.13l17.41-64.96c2.25-8.41 2.93-12.95 2.02-13.62-.35-.25-1.94-.37-4.77-.37-2 0-2.91-.33-2.73-1 .16-.58.69-.87 1.61-.87h1.75c4.58 0 9.26-.96 14.01-2.87 1.4-.58 2.36-.88 2.86-.88h.5L44.3 53.43c4.44-4.75 9.82-7.12 16.15-7.12 6.99 0 11.97 2.4 14.94 7.19 2.96 4.79 3.38 11.14 1.27 19.05-2.32 8.66-6.92 16.03-13.8 22.11-6.88 6.08-14.02 9.12-21.43 9.12-2.58 0-5.15-.54-7.69-1.62Zm84.55-6.74c-6.22 5.58-12.83 8.37-19.85 8.37-5.51 0-9.24-2-11.18-6l-7.8 29.11c-.49 1.83-.72 2.91-.68 3.25.03.33.36.63.97.87 1.2.25 3.61.38 7.23.38 1.02 0 1.42.37 1.22 1.12-.16.58-.78.88-1.86.88H61.84c-2.42 0-3.54-.31-3.38-.93.21-.8.83-1.2 1.83-1.2h3.74c2.42 0 3.85-.54 4.31-1.62.21-.5 1.28-4.33 3.2-11.49l16.67-62.22c.62-2.33-.21-3.42-2.5-3.25h-5.25c-.75 0-1.04-.31-.87-.93.21-.8 1.23-1.2 3.06-1.2 4.56.08 9.02-1 13.37-3.25 1.26-.67 2.18-1 2.77-1 .66 0 1.02.31 1.06.94.04.62-.32 2.52-1.09 5.68 4.27-4.41 9.27-6.62 15.02-6.62 7.25 0 12.47 2.65 15.68 7.93 3.21 5.29 3.7 12.05 1.49 20.3-2.23 8.33-6.45 15.28-12.67 20.86ZM219.86 28.58h-2.41c-.61-1.71-1.67-3.43-3.17-5.17s-2.99-2.78-4.46-3.09c-.63-.15-1.52-.24-2.64-.27-1.13-.03-2.07-.05-2.8-.05h-6.52v17.32h4.62c1.16 0 2.22-.14 3.17-.41.95-.28 1.81-.81 2.6-1.58.48-.49.98-1.34 1.47-2.56.49-1.23.81-2.29.96-3.2h2.41v18.74h-2.41c-.13-.89-.45-2-.96-3.34-.52-1.34-1.01-2.26-1.47-2.77-.7-.76-1.52-1.28-2.47-1.57s-2.05-.43-3.29-.43h-4.62v12.95c0 1.35.1 2.42.3 3.21.2.79.58 1.4 1.13 1.82.53.4 1.25.66 2.17.79.92.13 2.17.19 3.75.19.74 0 1.62-.01 2.66-.03 1.04-.02 1.94-.09 2.72-.19.89-.11 1.71-.27 2.49-.47.77-.21 1.34-.52 1.72-.92 1.01-1.04 2.15-2.61 3.42-4.74s2.1-3.71 2.5-4.76h2.31l-.85 13.99h-42.14v-2.47c.59-.05 1.39-.13 2.41-.25s1.73-.28 2.15-.44c.8-.34 1.34-.76 1.61-1.28.28-.52.41-1.18.41-1.98V23.93c0-.76-.12-1.39-.35-1.89-.23-.49-.79-.95-1.68-1.34-.55-.25-1.32-.49-2.31-.7-.99-.21-1.74-.35-2.25-.41v-2.47h39.83v11.46ZM279.05 19.58c-.59.06-1.43.18-2.53.35-1.1.17-2.09.58-2.98 1.23-.78.57-1.33 1.55-1.66 2.93-.33 1.38-.49 3.41-.49 6.1v32.1h-5.64l-27.99-34.73v21.09c0 2.61.18 4.6.52 5.97.35 1.36.91 2.36 1.7 2.99.57.46 1.48.87 2.72 1.23 1.24.36 2.24.6 2.98.73v2.47h-19.31v-2.47c.82-.06 1.77-.22 2.84-.46 1.06-.24 1.95-.62 2.67-1.12.82-.62 1.39-1.54 1.7-2.77.3-1.23.46-3.31.46-6.22V27.72c0-1.06-.16-2.05-.49-2.99-.33-.94-.84-1.75-1.53-2.42a8.494 8.494 0 0 0-2.55-1.7c-.96-.41-2.05-.73-3.28-.96v-2.53h16.91l24.56 30.38V30.51c0-2.7-.18-4.71-.54-6.03-.36-1.32-.93-2.29-1.71-2.93-.61-.49-1.52-.9-2.72-1.25s-2.18-.58-2.91-.71v-2.47h19.28v2.47ZM322.35 28.58h-2.41c-.61-1.71-1.67-3.43-3.17-5.17s-2.99-2.78-4.46-3.09c-.63-.15-1.52-.24-2.64-.27-1.13-.03-2.07-.05-2.8-.05h-6.52v17.32h4.62c1.16 0 2.22-.14 3.17-.41.95-.28 1.81-.81 2.6-1.58.48-.49.98-1.34 1.47-2.56.49-1.23.81-2.29.96-3.2h2.41v18.74h-2.41c-.13-.89-.45-2-.96-3.34-.52-1.34-1.01-2.26-1.47-2.77-.7-.76-1.52-1.28-2.47-1.57s-2.05-.43-3.29-.43h-4.62v12.95c0 1.35.1 2.42.3 3.21.2.79.58 1.4 1.13 1.82.53.4 1.25.66 2.17.79.92.13 2.17.19 3.75.19.74 0 1.62-.01 2.66-.03 1.04-.02 1.94-.09 2.72-.19.89-.11 1.71-.27 2.49-.47.77-.21 1.34-.52 1.72-.92 1.01-1.04 2.15-2.61 3.42-4.74s2.1-3.71 2.5-4.76h2.31l-.85 13.99h-42.14v-2.47c.59-.05 1.39-.13 2.41-.25s1.73-.28 2.15-.44c.8-.34 1.34-.76 1.61-1.28.28-.52.41-1.18.41-1.98V23.93c0-.76-.12-1.39-.35-1.89-.23-.49-.79-.95-1.68-1.34-.55-.25-1.32-.49-2.31-.7-.99-.21-1.74-.35-2.25-.41v-2.47h39.83v11.46ZM381.51 62.04h-17.24c-2.97-4.56-5.45-8.19-7.42-10.89-1.97-2.7-4.42-5.83-7.35-9.37h-1.74v13.65c0 .76.14 1.4.43 1.93.29.52.83.97 1.63 1.33.4.17 1.03.34 1.89.52.85.18 1.59.3 2.2.37v2.47h-23.97v-2.47c.61-.06 1.42-.15 2.42-.27 1-.11 1.72-.26 2.14-.43.8-.34 1.34-.76 1.61-1.28.28-.52.41-1.18.41-1.98V23.93c0-.76-.12-1.39-.35-1.9s-.79-.95-1.68-1.33c-.67-.28-1.47-.51-2.39-.7-.91-.19-1.64-.33-2.17-.41v-2.47h25.2c5.64 0 9.91.88 12.84 2.64 2.92 1.76 4.38 4.43 4.38 8 0 3.14-.9 5.67-2.71 7.58-1.8 1.91-4.55 3.41-8.25 4.48 1.43 1.85 3.11 4.01 5.02 6.46 1.91 2.45 3.9 4.95 5.97 7.5.66.82 1.55 1.83 2.68 3.02 1.13 1.19 2.13 1.93 2.99 2.2.48.14 1.1.27 1.85.38.75.1 1.28.17 1.6.19v2.47Zm-21.56-33.4c0-3-.84-5.19-2.52-6.57-1.67-1.38-4.07-2.07-7.17-2.07h-2.5v18.81h2.41c3.1 0 5.51-.81 7.22-2.44s2.56-4.2 2.56-7.73ZM432.31 43.77c-.66.06-1.23.14-1.74.22-.51.08-1.14.25-1.9.51-.86.27-1.43.73-1.71 1.36s-.41 1.3-.41 1.99v5.22c0 1.05 0 1.9.03 2.55.02.65.05 1.44.09 2.39-2.11 1.27-5.23 2.46-9.36 3.58-4.13 1.12-7.92 1.68-11.38 1.68-3.25 0-6.3-.5-9.15-1.49-2.85-1-5.35-2.48-7.5-4.47-2.15-1.96-3.84-4.41-5.08-7.32-1.23-2.92-1.85-6.25-1.85-10.01 0-3.51.58-6.75 1.74-9.72 1.16-2.98 2.84-5.55 5.03-7.7 2.15-2.13 4.78-3.78 7.87-4.94 3.09-1.16 6.52-1.74 10.28-1.74 2.56 0 4.92.32 7.09.95s3.97 1.31 5.38 2.03l1.96-1.74h2.75l.28 16.4h-2.79c-1.61-4.93-3.52-8.59-5.76-10.98-2.24-2.39-5.07-3.59-8.49-3.59-4.05 0-7.18 1.77-9.39 5.32-2.2 3.55-3.31 8.44-3.31 14.67 0 6.61 1.08 11.79 3.24 15.53 2.17 3.74 5.23 5.61 9.2 5.61 1.86 0 3.51-.28 4.96-.84 1.44-.56 2.57-1.21 3.37-1.94v-9.12c0-.76-.14-1.4-.41-1.92-.28-.52-.82-.96-1.65-1.34-.63-.3-1.42-.54-2.37-.73s-1.74-.33-2.37-.41v-2.47h23.33v2.47ZM482.67 19.58c-.76.08-1.45.22-2.09.41s-1.23.45-1.8.79c-.9.51-1.71 1.15-2.42 1.94s-1.4 1.67-2.07 2.65c-1.37 2-2.81 4.18-4.32 6.54-1.51 2.36-3.15 4.94-4.92 7.78-1.16 1.79-1.87 3.17-2.13 4.13-.26.96-.39 2.62-.39 4.99v6.36c0 .76.14 1.42.43 1.99.29.57.83 1.03 1.63 1.39.36.14 1.12.34 2.28.58 1.16.24 2.02.38 2.56.43v2.47h-25.04v-2.47c.59-.05 1.44-.13 2.55-.25 1.11-.13 1.89-.28 2.33-.44.78-.34 1.32-.79 1.6-1.35.29-.56.43-1.24.43-2.04v-7.92c0-.7 0-1.31-.03-1.84-.02-.53-.09-.97-.22-1.33-.15-.4-.4-.91-.76-1.54-.36-.62-.82-1.43-1.39-2.42-1.62-2.85-3.2-5.55-4.72-8.11-1.52-2.56-2.97-4.95-4.34-7.19-.72-1.16-1.44-2.09-2.17-2.8s-1.47-1.28-2.23-1.72c-.57-.32-1.26-.56-2.07-.73-.81-.17-1.55-.28-2.2-.32v-2.47h25.74v2.47c-2.36.06-3.94.23-4.77.49-.82.27-1.23.63-1.23 1.09 0 .23.15.7.46 1.39.31.7.85 1.77 1.63 3.22.71 1.37 1.76 3.26 3.15 5.66 1.38 2.41 3.04 5.22 4.98 8.44 4-6.35 6.75-10.78 8.25-13.3 1.49-2.52 2.24-4.06 2.24-4.63 0-.72-.44-1.27-1.32-1.65-.88-.38-2.31-.62-4.28-.73v-2.47h16.65v2.47ZM222.14 93.2c0 2.53-.52 4.71-1.57 6.54-1.04 1.83-2.48 3.31-4.32 4.45-1.9 1.18-4.07 2.04-6.51 2.56-2.43.52-5.17.79-8.21.79h-3.67v12.63c0 .76.14 1.42.43 1.98s.83 1.01 1.63 1.35c.42.17 1.11.35 2.06.54s1.75.32 2.41.38v2.47h-24.35v-2.47c.61-.06 1.42-.15 2.44-.27 1.01-.11 1.72-.26 2.12-.43.82-.34 1.37-.75 1.63-1.23.26-.49.39-1.16.39-2.03V88.77c0-.74-.13-1.38-.38-1.92s-.8-.99-1.65-1.34c-.59-.25-1.38-.48-2.36-.68-.99-.2-1.72-.33-2.2-.39v-2.47h24.79c5.8 0 10.14.92 13.01 2.77 2.87 1.85 4.31 4.67 4.31 8.47Zm-12.35 1.61c0-3.38-.68-5.88-2.04-7.52-1.37-1.63-3.79-2.45-7.27-2.45h-2.63v19.73h1.33c3.46 0 6.1-.8 7.9-2.39 1.81-1.59 2.71-4.05 2.71-7.36ZM270.9 126.89h-24.47v-2.47c1.14-.09 2.47-.29 4.01-.62 1.54-.33 2.31-.73 2.31-1.22a3 3 0 0 0-.05-.57c-.03-.21-.12-.5-.27-.85l-3.83-9.31h-15.51c-.36.86-.75 1.88-1.18 3.04-.43 1.16-.81 2.19-1.12 3.1-.4 1.18-.64 2.04-.71 2.56-.08.52-.11.9-.11 1.11 0 .67.51 1.25 1.53 1.72 1.03.47 2.73.82 5.11 1.03v2.47h-18.43v-2.47c.7-.05 1.48-.15 2.36-.33.87-.18 1.56-.43 2.07-.74a8.15 8.15 0 0 0 2.2-1.87c.61-.74 1.1-1.61 1.51-2.63 2.45-5.93 4.9-11.87 7.36-17.83 2.46-5.95 5.18-12.52 8.16-19.69h6.33c4.14 10.17 7.38 18.21 9.72 24.13 2.34 5.91 4.34 10.81 5.98 14.69.28.63.62 1.21 1.04 1.72.42.52 1.02 1.01 1.8 1.47.59.33 1.28.59 2.06.76.78.17 1.49.27 2.12.32v2.47Zm-23.61-18.17-6.5-16.24-6.41 16.24h12.91ZM327.54 126.89H310.3c-2.97-4.56-5.45-8.19-7.42-10.89-1.97-2.7-4.42-5.83-7.35-9.37h-1.74v13.65c0 .76.14 1.4.43 1.93.29.52.83.97 1.63 1.33.4.17 1.03.34 1.89.52.85.18 1.59.3 2.2.37v2.47h-23.97v-2.47c.61-.06 1.42-.15 2.42-.27 1-.11 1.72-.26 2.14-.43.8-.34 1.34-.76 1.61-1.28.28-.52.41-1.18.41-1.98V88.78c0-.76-.12-1.39-.35-1.9s-.79-.95-1.68-1.33c-.67-.28-1.47-.51-2.39-.7-.91-.19-1.64-.33-2.17-.41v-2.47h25.2c5.64 0 9.91.88 12.84 2.64 2.92 1.76 4.38 4.43 4.38 8 0 3.14-.9 5.67-2.71 7.58-1.8 1.91-4.55 3.41-8.25 4.48 1.43 1.85 3.11 4.01 5.02 6.46 1.91 2.45 3.9 4.95 5.97 7.5.66.82 1.55 1.83 2.68 3.02 1.13 1.19 2.13 1.93 2.99 2.2.48.14 1.1.27 1.85.38.75.1 1.28.17 1.6.19v2.47Zm-21.56-33.4c0-3-.84-5.19-2.52-6.57-1.67-1.38-4.07-2.07-7.17-2.07h-2.5v18.81h2.41c3.1 0 5.51-.81 7.22-2.44s2.56-4.2 2.56-7.73ZM370.08 94.81h-2.47c-.65-1.92-1.7-3.98-3.14-6.17-1.44-2.2-2.77-3.38-3.99-3.55-.67-.09-1.51-.16-2.5-.22s-1.85-.09-2.56-.09h-1.48v35.24c0 .76.14 1.43.41 2.01.28.58.81 1.04 1.61 1.38.48.19 1.24.38 2.26.58 1.03.2 1.9.34 2.61.43v2.47h-25.04v-2.47c.61-.06 1.47-.15 2.58-.27 1.1-.11 1.86-.26 2.26-.43.82-.34 1.37-.79 1.65-1.36s.41-1.25.41-2.03V84.77h-1.48c-.72 0-1.57.03-2.56.09s-1.82.14-2.5.22c-1.22.17-2.55 1.35-3.99 3.55-1.44 2.19-2.49 4.25-3.14 6.17h-2.47V81.95h43.53V94.8ZM424.93 84.43c-.59.06-1.43.18-2.53.35-1.1.17-2.09.58-2.98 1.23-.78.57-1.33 1.55-1.66 2.93-.33 1.38-.49 3.41-.49 6.1v32.1h-5.64l-27.99-34.73v21.09c0 2.61.18 4.6.52 5.97.35 1.36.91 2.36 1.7 2.99.57.46 1.48.87 2.72 1.23 1.24.36 2.24.6 2.98.73v2.47h-19.31v-2.47c.82-.06 1.77-.22 2.84-.46 1.06-.24 1.95-.62 2.67-1.12.82-.62 1.39-1.54 1.7-2.77.3-1.23.46-3.31.46-6.22V92.57c0-1.06-.16-2.05-.49-2.99-.33-.94-.84-1.75-1.53-2.42a8.494 8.494 0 0 0-2.55-1.7c-.96-.41-2.05-.73-3.28-.96v-2.53h16.91l24.56 30.38V95.36c0-2.7-.18-4.71-.54-6.03-.36-1.32-.93-2.29-1.71-2.93-.61-.49-1.52-.9-2.72-1.25s-2.18-.58-2.91-.71v-2.47h19.28v2.47ZM468.23 93.42h-2.41c-.61-1.71-1.67-3.43-3.17-5.17s-2.99-2.78-4.46-3.09c-.63-.15-1.52-.24-2.64-.27-1.13-.03-2.07-.05-2.8-.05h-6.52v17.32h4.62c1.16 0 2.22-.14 3.17-.41.95-.28 1.81-.81 2.6-1.58.48-.49.98-1.34 1.47-2.56.49-1.23.81-2.29.96-3.2h2.41v18.74h-2.41c-.13-.89-.45-2-.96-3.34-.52-1.34-1.01-2.26-1.47-2.77-.7-.76-1.52-1.28-2.47-1.57s-2.05-.43-3.29-.43h-4.62v12.95c0 1.35.1 2.42.3 3.21.2.79.58 1.4 1.13 1.82.53.4 1.25.66 2.17.79.92.13 2.17.19 3.75.19.74 0 1.62-.01 2.66-.03 1.04-.02 1.94-.09 2.72-.19.89-.11 1.71-.27 2.49-.47.77-.21 1.34-.52 1.72-.92 1.01-1.04 2.15-2.61 3.42-4.74s2.1-3.71 2.5-4.76h2.31l-.85 13.99h-42.14v-2.47c.59-.05 1.39-.13 2.41-.25s1.73-.28 2.15-.44c.8-.34 1.34-.76 1.61-1.28.28-.52.41-1.18.41-1.98V88.77c0-.76-.12-1.39-.35-1.89-.23-.49-.79-.95-1.68-1.34-.55-.25-1.32-.49-2.31-.7-.99-.21-1.74-.35-2.25-.41v-2.47h39.83v11.46ZM527.39 126.89h-17.24c-2.97-4.56-5.45-8.19-7.42-10.89-1.97-2.7-4.42-5.83-7.35-9.37h-1.74v13.65c0 .76.14 1.4.43 1.93.29.52.83.97 1.63 1.33.4.17 1.03.34 1.89.52.85.18 1.59.3 2.2.37v2.47h-23.97v-2.47c.61-.06 1.42-.15 2.42-.27 1-.11 1.72-.26 2.14-.43.8-.34 1.34-.76 1.61-1.28.28-.52.41-1.18.41-1.98V88.78c0-.76-.12-1.39-.35-1.9s-.79-.95-1.68-1.33c-.67-.28-1.47-.51-2.39-.7-.91-.19-1.64-.33-2.17-.41v-2.47h25.2c5.64 0 9.91.88 12.84 2.64 2.92 1.76 4.38 4.43 4.38 8 0 3.14-.9 5.67-2.71 7.58-1.8 1.91-4.55 3.41-8.25 4.48 1.43 1.85 3.11 4.01 5.02 6.46 1.91 2.45 3.9 4.95 5.97 7.5.66.82 1.55 1.83 2.68 3.02 1.13 1.19 2.13 1.93 2.99 2.2.48.14 1.1.27 1.85.38.75.1 1.28.17 1.6.19v2.47Zm-21.56-33.4c0-3-.84-5.19-2.52-6.57-1.67-1.38-4.07-2.07-7.17-2.07h-2.5v18.81h2.41c3.1 0 5.51-.81 7.22-2.44s2.56-4.2 2.56-7.73ZM547 128.12c-2.75 0-5.3-.34-7.68-1.03-2.37-.68-4.38-1.49-6.03-2.42l-2.18 2.22h-2.69l-.41-16.24h2.72c.61 1.54 1.39 3.17 2.34 4.88s2.05 3.25 3.29 4.6c1.29 1.42 2.73 2.57 4.32 3.46 1.59.89 3.46 1.33 5.59 1.33 2.87 0 5.07-.7 6.6-2.11 1.53-1.41 2.3-3.18 2.3-5.31 0-1.75-.65-3.22-1.94-4.42-1.3-1.19-3.31-2.23-6.03-3.09-1.77-.57-3.4-1.1-4.89-1.59-1.48-.49-2.89-.99-4.19-1.5-3.02-1.2-5.26-2.93-6.73-5.17-1.47-2.24-2.2-4.74-2.2-7.52 0-1.75.38-3.44 1.14-5.05.76-1.62 1.87-3.07 3.32-4.36 1.39-1.2 3.18-2.19 5.35-2.95s4.54-1.14 7.09-1.14 4.82.35 7 1.04 3.89 1.39 5.13 2.09l1.93-1.9h2.75l.25 15.32h-2.72c-.63-1.65-1.38-3.34-2.23-5.06-.85-1.73-1.75-3.16-2.7-4.3-1.04-1.23-2.23-2.21-3.58-2.94s-2.94-1.09-4.75-1.09c-2.28 0-4.14.64-5.59 1.94-1.45 1.29-2.17 2.89-2.17 4.79 0 1.8.63 3.27 1.88 4.41 1.26 1.14 3.22 2.14 5.88 3.01 1.56.53 3.16 1.06 4.78 1.58 1.62.53 3.07 1.04 4.34 1.52 3.06 1.19 5.39 2.82 6.98 4.9 1.6 2.08 2.39 4.66 2.39 7.75 0 1.94-.45 3.83-1.36 5.64s-2.13 3.33-3.67 4.54c-1.69 1.33-3.64 2.36-5.86 3.07-2.22.72-4.8 1.08-7.76 1.08Z"/>
</svg>
