<?xml version="1.0" standalone="no"?>
<!DOCTYPE svg PUBLIC "-//W3C//DTD SVG 20010904//EN"
 "http://www.w3.org/TR/2001/REC-SVG-20010904/DTD/svg10.dtd">
<svg version="1.0" xmlns="http://www.w3.org/2000/svg"
 width="700.000000pt" height="700.000000pt" viewBox="0 0 700.000000 700.000000"
 preserveAspectRatio="xMidYMid meet">
<metadata>
Created by potrace 1.14, written by Peter Selinger 2001-2017
</metadata>
<g transform="translate(0.000000,700.000000) scale(0.100000,-0.100000)"
fill="#000000" stroke="none">
<path d="M0 3500 l0 -3500 3500 0 3500 0 0 3500 0 3500 -3500 0 -3500 0 0
-3500z m3850 2425 c272 -41 517 -119 755 -240 967 -489 1497 -1555 1305 -2625
-103 -570 -427 -1112 -880 -1473 -894 -712 -2161 -713 -3054 -3 -492 391 -804
937 -903 1576 -25 160 -25 520 0 680 108 698 473 1288 1040 1678 351 241 733
378 1192 426 86 9 444 -3 545 -19z"/>
<path d="M2840 5449 c-214 -79 -353 -109 -505 -109 -95 0 -134 -13 -122 -42 7
-19 59 -28 159 -28 101 0 113 -11 103 -94 -13 -122 -59 -302 -360 -1426 -169
-630 -313 -1174 -320 -1208 -22 -106 -11 -112 104 -54 101 50 143 49 276 -5
137 -56 202 -67 338 -60 233 12 452 111 671 302 245 215 411 492 491 825 26
105 31 302 11 393 -38 168 -134 298 -269 363 -108 51 -197 68 -341 61 -191 -8
-320 -58 -460 -179 -38 -34 -57 -45 -53 -32 21 71 347 1295 347 1304 0 14 -6
13 -70 -11z m328 -1194 c84 -45 121 -106 148 -236 41 -202 -29 -572 -172 -907
-105 -244 -248 -443 -385 -536 -135 -92 -386 -114 -490 -43 -101 69 -98 130
32 637 107 420 195 711 250 826 54 116 175 219 314 269 59 22 84 25 160 22 77
-2 98 -7 143 -32z"/>
<path d="M4320 4339 c-152 -72 -246 -97 -407 -108 -126 -9 -153 -18 -153 -52
0 -17 9 -19 114 -19 148 0 185 -13 186 -67 0 -12 -135 -527 -301 -1145 -387
-1446 -377 -1410 -398 -1431 -25 -26 -81 -36 -193 -37 -74 0 -100 -4 -112 -16
-50 -50 -13 -54 498 -54 489 0 503 1 494 46 -3 17 -15 20 -138 25 -133 6 -180
17 -180 43 0 15 280 1067 287 1079 2 4 19 -12 36 -35 85 -111 170 -143 367
-142 115 1 148 5 223 28 301 90 586 341 746 656 106 208 150 368 158 576 7
171 -9 255 -69 375 -78 156 -208 255 -385 295 -105 23 -293 16 -383 -15 -80
-27 -179 -85 -242 -141 -27 -23 -48 -38 -48 -33 0 4 7 45 16 90 9 45 14 89 11
97 -10 25 -56 19 -127 -15z m639 -55 c98 -29 171 -119 208 -257 24 -86 23
-320 0 -442 -73 -377 -244 -742 -441 -939 -147 -146 -341 -194 -493 -120 -97
47 -160 159 -149 265 6 60 202 856 261 1058 20 68 48 147 62 175 53 106 219
239 329 265 62 14 166 12 223 -5z"/>
</g>
</svg>
